<svg xmlns="http://www.w3.org/2000/svg" width="1200" height="1200" fill="none"><rect width="1200" height="1200" fill="#EAEAEA" rx="3"/><g opacity=".5"><g opacity=".5"><path fill="#FAFAFA" d="M600.709 736.5c-75.454 0-136.621-61.167-136.621-136.62 0-75.454 61.167-136.621 136.621-136.621 75.453 0 136.62 61.167 136.62 136.621 0 75.453-61.167 136.62-136.62 136.62Z"/><path stroke="#C9C9C9" stroke-width="2.418" d="M600.709 736.5c-75.454 0-136.621-61.167-136.621-136.62 0-75.454 61.167-136.621 136.621-136.621 75.453 0 136.62 61.167 136.62 136.621 0 75.453-61.167 136.62-136.62 136.62Z"/></g><path stroke="url(#a)" stroke-width="2.418" d="M0-1.209h553.581" transform="scale(1 -1) rotate(45 1163.11 91.165)"/><path stroke="url(#b)" stroke-width="2.418" d="M404.846 598.671h391.726"/><path stroke="url(#c)" stroke-width="2.418" d="M599.5 795.742V404.017"/><path stroke="url(#d)" stroke-width="2.418" d="m795.717 796.597-391.441-391.44"/><path fill="#fff" d="M600.709 656.704c-31.384 0-56.825-25.441-56.825-56.824 0-31.384 25.441-56.825 56.825-56.825 31.383 0 56.824 25.441 56.824 56.825 0 31.383-25.441 56.824-56.824 56.824Z"/><g clip-path="url(#e)"><path fill="#666" fill-rule="evenodd" d="M616.426 586.58h-31.434v16.176l3.553-3.554.531-.531h9.068l.074-.074 8.463-8.463h2.565l7.18 7.181V586.58Zm-15.715 14.654 3.698 3.699 1.283 1.282-2.565 2.565-1.282-1.283-5.2-5.199h-6.066l-5.514 5.514-.073.073v2.876a2.418 2.418 0 0 0 2.418 2.418h26.598a2.418 2.418 0 0 0 2.418-2.418v-8.317l-8.463-8.463-7.181 7.181-.070"/></g></g><defs><linearGradient id="a" x1="0" x2="553.581" y1="-1.209" y2="-1.209" gradientUnits="userSpaceOnUse"><stop stop-color="#D1D1D1"/><stop offset="1" stop-color="#F1F1F1"/></linearGradient><linearGradient id="b" x1="404.846" x2="796.572" y1="598.671" y2="598.671" gradientUnits="userSpaceOnUse"><stop stop-color="#D1D1D1"/><stop offset="1" stop-color="#F1F1F1"/></linearGradient><linearGradient id="c" x1="599.5" x2="599.5" y1="404.017" y2="795.742" gradientUnits="userSpaceOnUse"><stop stop-color="#D1D1D1"/><stop offset="1" stop-color="#F1F1F1"/></linearGradient><linearGradient id="d" x1="404.276" x2="795.717" y1="405.157" y2="796.597" gradientUnits="userSpaceOnUse"><stop stop-color="#D1D1D1"/><stop offset="1" stop-color="#F1F1F1"/></linearGradient><clipPath id="e"><path fill="#fff" d="M582 589h37v37h-37z"/></clipPath></defs></svg>
